<svg xmlns="http://www.w3.org/2000/svg" width="480" height="300" viewBox="0 0 480 300" font-family="Segoe UI, system-ui, Arial, sans-serif">
  <rect width="480" height="300" fill="#dfe4ea"/>
  <!-- app window -->
  <rect x="22" y="22" width="436" height="256" rx="8" fill="#ffffff" stroke="#c7cdd4"/>
  <path d="M22 30 a8 8 0 0 1 8 -8 h420 a8 8 0 0 1 8 8 v18 h-436 z" fill="#f1f3f6"/>
  <circle cx="38" cy="35" r="4" fill="#ed6a5e"/>
  <circle cx="52" cy="35" r="4" fill="#f4be4f"/>
  <circle cx="66" cy="35" r="4" fill="#61c554"/>
  <text x="240" y="39" text-anchor="middle" font-size="11" fill="#8a9099">Mail</text>

  <!-- sidebar -->
  <rect x="22" y="48" width="96" height="230" fill="#f6f8fa"/>
  <rect x="34" y="66" width="60" height="8" rx="4" fill="#9aa3ad"/>
  <rect x="34" y="86" width="72" height="7" rx="3.5" fill="#c8ced6"/>
  <rect x="34" y="102" width="52" height="7" rx="3.5" fill="#c8ced6"/>
  <rect x="34" y="118" width="64" height="7" rx="3.5" fill="#c8ced6"/>

  <!-- inbox list rows -->
  <!-- new (unread) row -->
  <circle cx="138" cy="78" r="4" fill="#2f6fed"/>
  <rect x="150" y="72" width="150" height="9" rx="4.5" fill="#1f2328"/>
  <rect x="150" y="88" width="250" height="7" rx="3.5" fill="#aeb6bf"/>
  <text x="430" y="82" text-anchor="end" font-size="10" fill="#8a9099">09:42</text>
  <!-- other rows -->
  <rect x="150" y="116" width="120" height="8" rx="4" fill="#c8ced6"/>
  <rect x="150" y="132" width="230" height="7" rx="3.5" fill="#d8dde3"/>
  <rect x="150" y="160" width="120" height="8" rx="4" fill="#c8ced6"/>
  <rect x="150" y="176" width="210" height="7" rx="3.5" fill="#d8dde3"/>

  <!-- watched-area highlight frame (drawn just outside the inbox region) -->
  <rect x="128" y="60" width="316" height="130" rx="6" fill="none" stroke="#ff3030" stroke-width="3"/>
  <rect x="128" y="40" width="74" height="18" rx="4" fill="#ff3030"/>
  <text x="138" y="53" font-size="12" font-weight="700" fill="#ffffff">Inbox</text>
</svg>
